<svg id="Objects" xmlns="http://www.w3.org/2000/svg" viewBox="0 0 136.1 119.85"><defs><style>.cls-1{fill:#447762;}.cls-2{fill:#ecacac;}.cls-3{fill:#345948;}</style></defs><path class="cls-1" d="M564.59,397.91a4.86,4.86,0,0,1,1.86,2.11,7.38,7.38,0,0,1,.67,3.28,7.47,7.47,0,0,1-.69,3.29,5.28,5.28,0,0,1-1.9,2.23,5,5,0,0,1-2.77.79,5.37,5.37,0,0,1-2.81-.73,4.74,4.74,0,0,1-1.87-2.1,7.41,7.41,0,0,1-.67-3.28,7.55,7.55,0,0,1,.69-3.3A5.31,5.31,0,0,1,559,398a5,5,0,0,1,2.77-.79A5.43,5.43,0,0,1,564.59,397.91Zm-4.78.34a4.74,4.74,0,0,0-1.27,2.1,9.65,9.65,0,0,0-.45,3.08,8.86,8.86,0,0,0,.5,3.09,5,5,0,0,0,1.34,2.06,2.87,2.87,0,0,0,1.89.72,2.74,2.74,0,0,0,1.9-.75,4.72,4.72,0,0,0,1.26-2.1,9.76,9.76,0,0,0,.45-3.09,9.09,9.09,0,0,0-.49-3.08,4.81,4.81,0,0,0-1.35-2.06,2.83,2.83,0,0,0-1.88-.73A2.73,2.73,0,0,0,559.81,398.25Z" transform="translate(-502.95 -376.04)"/><path class="cls-1" d="M579.92,409.35a1.84,1.84,0,0,1-1,.26,1.64,1.64,0,0,1-1.14-.41,2.65,2.65,0,0,1-.67-1.42l-.37-1.68a12.21,12.21,0,0,0-.38-1.36,1.8,1.8,0,0,0-.53-.75,1.57,1.57,0,0,0-1-.29h-1.6v3.88a2.94,2.94,0,0,0,.1.92.66.66,0,0,0,.38.4,3.17,3.17,0,0,0,.89.13v.34c-.52,0-1.23-.05-2.15-.05s-1.68,0-2.15.05V409a3.15,3.15,0,0,0,.88-.13.63.63,0,0,0,.38-.4,2.94,2.94,0,0,0,.1-.92v-8.36a3,3,0,0,0-.1-.93.61.61,0,0,0-.38-.39,2.81,2.81,0,0,0-.88-.13v-.34c.47,0,1.16.05,2.06.05l1.45,0,1.09,0a5.67,5.67,0,0,1,2.23.39,3,3,0,0,1,1.38,1,2.66,2.66,0,0,1,.46,1.51,3.05,3.05,0,0,1-1.36,2.53,4.4,4.4,0,0,1-1.92.71l.21,0a4,4,0,0,1,1.21.38,1.84,1.84,0,0,1,.72.69,4,4,0,0,1,.43,1.16l.42,1.72a5,5,0,0,0,.22.81,1.09,1.09,0,0,0,.26.43.56.56,0,0,0,.38.14.74.74,0,0,0,.46-.14,4,4,0,0,0,.47-.5l.25.19A3,3,0,0,1,579.92,409.35Zm-3.8-6.35a1.9,1.9,0,0,0,.89-1,3.78,3.78,0,0,0,.25-1.46,3,3,0,0,0-.66-2.1,2.81,2.81,0,0,0-2.14-.7,2,2,0,0,0-.79.12.63.63,0,0,0-.36.42,3,3,0,0,0-.1.91v4.14h1.13A3.67,3.67,0,0,0,576.12,403Z" transform="translate(-502.95 -376.04)"/><path class="cls-1" d="M592.13,408.71c-.09-.2-.19-.31-.32-.31a.39.39,0,0,0-.21.06,2.72,2.72,0,0,0-.35.23,4.82,4.82,0,0,1-1.22.69,4.17,4.17,0,0,1-1.41.23,5.83,5.83,0,0,1-3-.72,4.71,4.71,0,0,1-1.9-2.07,7.25,7.25,0,0,1-.66-3.22,7.75,7.75,0,0,1,.7-3.38,5.25,5.25,0,0,1,1.93-2.24,5.06,5.06,0,0,1,2.8-.79,5,5,0,0,1,1.22.14,4.1,4.1,0,0,1,.92.37c.26.15.56.34.9.58a.59.59,0,0,0,.34.18c.21,0,.35-.35.42-1h.38c0,.73-.06,2-.06,3.88h-.39a13.69,13.69,0,0,0-.32-1.49,2.87,2.87,0,0,0-.53-1,3.42,3.42,0,0,0-1.27-1,3.91,3.91,0,0,0-1.64-.36,2.92,2.92,0,0,0-2,.73,4.57,4.57,0,0,0-1.3,2.06,9.54,9.54,0,0,0-.47,3.13,10.59,10.59,0,0,0,.44,3.32,3.65,3.65,0,0,0,1.31,1.92,3.9,3.9,0,0,0,2.27.62,3,3,0,0,0,1.76-.53,1.18,1.18,0,0,0,.39-.39,1.3,1.3,0,0,0,.09-.53V406.2a2.92,2.92,0,0,0-.13-1,.78.78,0,0,0-.48-.44,4.44,4.44,0,0,0-1.09-.16v-.33c.55,0,1.34.06,2.38.06.79,0,1.37,0,1.75-.06v.33a1.45,1.45,0,0,0-.56.14.54.54,0,0,0-.23.38,4.13,4.13,0,0,0-.07.93v3.35h-.33A2.1,2.1,0,0,0,592.13,408.71Z" transform="translate(-502.95 -376.04)"/><path class="cls-1" d="M606.46,409v.34c-.46,0-1.07-.05-1.81-.05-1,0-1.68,0-2.16.05V409a2.53,2.53,0,0,0,.92-.16.47.47,0,0,0,.27-.47,2.36,2.36,0,0,0-.19-.79l-1-2.76h-4.07l-.69,1.78a4.18,4.18,0,0,0-.34,1.39.83.83,0,0,0,.36.76,2.12,2.12,0,0,0,1.11.25v.34c-.64,0-1.29-.05-1.94-.05a11.13,11.13,0,0,0-1.26.05V409q.84-.19,1.32-1.47l4-10.21h.27l4.11,10.6C605.57,408.65,606,409,606.46,409Zm-6-9.55-1.93,5h3.82Z" transform="translate(-502.95 -376.04)"/><path class="cls-1" d="M618.12,397.93a.79.79,0,0,0-.39.48,3.37,3.37,0,0,0-.11,1v10.06h-.38l-7.09-10.94v8.9a3,3,0,0,0,.12,1,.8.8,0,0,0,.43.47,2.76,2.76,0,0,0,1,.17v.34c-.4,0-1-.05-1.72-.05s-1.2,0-1.57.05V409a2.21,2.21,0,0,0,.87-.17.77.77,0,0,0,.39-.47,3.42,3.42,0,0,0,.11-1v-8.19a3,3,0,0,0-.11-.93.6.6,0,0,0-.37-.39,2.89,2.89,0,0,0-.89-.13v-.34c.37,0,.89.05,1.57.05.5,0,.94,0,1.31-.05l6,9.17v-7.21a3,3,0,0,0-.12-1,.76.76,0,0,0-.43-.48,2.8,2.8,0,0,0-1-.16v-.34c.4,0,1,.05,1.72.05s1.2,0,1.57-.05v.34A2.24,2.24,0,0,0,618.12,397.93Z" transform="translate(-502.95 -376.04)"/><path class="cls-1" d="M625.4,397.9a.6.6,0,0,0-.37.39,3,3,0,0,0-.11.93v8.36a2.88,2.88,0,0,0,.11.92.62.62,0,0,0,.37.4,3.23,3.23,0,0,0,.89.13v.34c-.52,0-1.23-.05-2.14-.05s-1.69,0-2.16.05V409a3.23,3.23,0,0,0,.89-.13.66.66,0,0,0,.38-.4,3.29,3.29,0,0,0,.1-.92v-8.36a3.37,3.37,0,0,0-.1-.93.64.64,0,0,0-.38-.39,2.89,2.89,0,0,0-.89-.13v-.34c.47,0,1.19.05,2.16.05s1.62,0,2.14-.05v.34A2.89,2.89,0,0,0,625.4,397.9Z" transform="translate(-502.95 -376.04)"/><path class="cls-1" d="M638.54,408.61c-.07-.16-.16-.24-.28-.24a.76.76,0,0,0-.35.14,8,8,0,0,1-.92.58,4.26,4.26,0,0,1-1,.37,4.6,4.6,0,0,1-1.23.15,5.4,5.4,0,0,1-2.81-.73,4.86,4.86,0,0,1-1.87-2.1,7.56,7.56,0,0,1-.66-3.28,7.69,7.69,0,0,1,.68-3.3A5.33,5.33,0,0,1,632,398a4.93,4.93,0,0,1,2.77-.79,4.65,4.65,0,0,1,1.72.29,6.09,6.09,0,0,1,1.38.8.54.54,0,0,0,.33.15c.23,0,.38-.33.43-1h.39c0,.73-.07,2-.07,3.88h-.38c-.09-.51-.16-.9-.23-1.18a3.9,3.9,0,0,0-.24-.71,3.77,3.77,0,0,0-.38-.61,3.16,3.16,0,0,0-1.29-1,4.35,4.35,0,0,0-1.69-.33,2.84,2.84,0,0,0-1.92.73,4.61,4.61,0,0,0-1.28,2.07,9.86,9.86,0,0,0-.45,3.14,9,9,0,0,0,.49,3.15,4.49,4.49,0,0,0,1.36,2,3.07,3.07,0,0,0,2,.69,4.43,4.43,0,0,0,1.64-.32,2.69,2.69,0,0,0,1.24-1,2.94,2.94,0,0,0,.5-1,13.7,13.7,0,0,0,.29-1.66H639c0,1.93,0,3.28.07,4.05h-.39A3,3,0,0,0,638.54,408.61Z" transform="translate(-502.95 -376.04)"/><path class="cls-2" d="M638.8,465.44A273.7,273.7,0,0,1,598.19,457a99.16,99.16,0,0,1-11.26-4c-4.25-1.85-8-4.5-12.23-6.48a54.59,54.59,0,0,0-15.41-4.77,30.17,30.17,0,0,0-9.29-.2,27.21,27.21,0,0,1-4.5.52c-2.52,0-5-.19-7.55-.3-2-.1-5.12-.58-6.78.87s-.82,4.29.46,5.69a7,7,0,0,0,3.83,1.63,33,33,0,0,0,5.53.55,64.41,64.41,0,0,0,7.48-.16,17.85,17.85,0,0,1,6,.29,3.85,3.85,0,0,1,2.85,2,3.65,3.65,0,0,1-.85,3.45c-2.12,2.53-6,3.66-9,4.56a92.4,92.4,0,0,1-14.56,2.89,132.64,132.64,0,0,1-15.56,1.1c-2,0-4,0-6,0a16.69,16.69,0,0,0-3.53.25,10.41,10.41,0,0,0-3.39,1.5c-.94.62-1.83,1.55-1.31,2.74.29.65.84.94,1.29,1.43l.08.08.38,0,2.2.18,3.62.29c.83.07.36.77-.16.92a4.63,4.63,0,0,0-1.13.46l.7.12a92,92,0,0,0,13.54,1.5,40,40,0,0,0,7.5-.36,12.78,12.78,0,0,0,5.67-2c.22-.17,1.19.07.87.31a14.49,14.49,0,0,1-6.74,2.25,60.67,60.67,0,0,1-15.58-.42c-2.14-.28-4.29-.59-6.42-1a1.47,1.47,0,0,0-.41,1c0,.52.32.86.44,1.32v0l.25.06c.55.11,1.09.27,1.63.41l7.57,1.9c.56.14.24.68-.14.82a4.14,4.14,0,0,0-1.23.66l.6.12a131.17,131.17,0,0,0,13.8,2.05,52.06,52.06,0,0,0,7.49.19,13.1,13.1,0,0,0,5.46-1.21,1,1,0,0,1,.74-.07c.17.08.22.19,0,.29a15.37,15.37,0,0,1-6.69,1.43,77.31,77.31,0,0,1-15.77-1.28c-2-.32-4-.68-6-1.09a1.28,1.28,0,0,0,0,1.12,3.57,3.57,0,0,0,1,1.29h0c.18,0,.37.12.55.17l1.89.62,8,2.6c.56.18.22.64-.14.82a3.92,3.92,0,0,0-.53.32l.58.14a70.86,70.86,0,0,0,13.58,2c4.74.17,10.29-.14,14.15-3.22.24-.19,1.14.26.91.43a15.69,15.69,0,0,1-7.41,2.94,49.1,49.1,0,0,1-15.81-.58c-2.14-.36-4.28-.8-6.39-1.34-.52.58-.56,1.29.32,1.95a15,15,0,0,0,4.18,1.72,43.57,43.57,0,0,0,5.49,1.36,59,59,0,0,0,10.61.86,48.86,48.86,0,0,0,17.51-3.4l13.39-5.18,10.88-4.21a10.27,10.27,0,0,1,1.94-.72,3.73,3.73,0,0,1,1.75.54l22.43,9.35,16.31,6.8c.24-1,.47-2,.71-3q3.21-13.71,6.44-27.43Z" transform="translate(-502.95 -376.04)"/><path class="cls-3" d="M534.12,376l-14.2,32.26a15.56,15.56,0,0,0,14.24,21.82h0A16.46,16.46,0,0,0,549,406.44Z" transform="translate(-502.95 -376.04)"/><path class="cls-2" d="M542,409.28a3.82,3.82,0,0,0-3.86-3.61,3.86,3.86,0,0,0-2.58,1.18l-1,1L533,406.32a2.92,2.92,0,0,0-2.08-.86,2.89,2.89,0,0,0-2.08.86,5.5,5.5,0,0,0-.53,7.29l6.53,8.93,5.18-7.78C541.11,413.05,542.14,411.2,542,409.28Z" transform="translate(-502.95 -376.04)"/></svg>